<!DOCTYPE svg PUBLIC "-//W3C//DTD SVG 1.1//EN" "http://www.w3.org/Graphics/SVG/1.1/DTD/svg11.dtd">
<!-- Uploaded to: SVG Repo, www.svgrepo.com, Transformed by: SVG Repo Mixer Tools -->
<svg width="800px" height="800px" viewBox="-6.4 -6.4 140.80 140.80" xmlns="http://www.w3.org/2000/svg" xmlns:xlink="http://www.w3.org/1999/xlink" aria-hidden="true" role="img" class="iconify iconify--noto" preserveAspectRatio="xMidYMid meet" fill="#ffffff" stroke="#ffffff" stroke-width="1.024">
<g id="SVGRepo_bgCarrier" stroke-width="0">
<path transform="translate(-6.4, -6.4), scale(4.4)" d="M16,26.09243979020154C19.33633265919709,26.30219499133805,22.819002999383393,29.28665352832758,25.627748671614782,27.47390406799105C28.422905373990375,25.6699248562449,28.537658417811983,21.482573124389468,28.282066433063896,18.165659691002944C28.07036024244849,15.418268733984348,25.66950517557724,13.597396711186795,24.371176882153996,11.16689877365442C22.99727119790058,8.594918367113774,22.932108145680246,5.2344662020542945,20.508417439895243,3.6132248864124072C17.757237663512043,1.7729214559521163,13.935757657056836,0.7185844818893261,10.980811146740574,2.209891961691387C8.083127442864425,3.6722999499931905,7.697025424782273,7.530704128259665,6.655119828361954,10.604730917359973C5.8522391279709485,12.973541287448352,5.582268496151686,15.318984944225384,5.690689129961518,17.817809658898838C5.8197707276743005,20.79281796903278,5.014869536436578,24.460022143837897,7.337156614236381,26.323974727064773C9.659950451642466,28.188334054094444,13.02741184911498,25.905553202688722,16,26.09243979020154" fill="#7eecbc" strokewidth="0"/>
</g>
<g id="SVGRepo_tracerCarrier" stroke-linecap="round" stroke-linejoin="round" stroke="#4d4d52" stroke-width="9.728">
<path d="M77.78 11.93c10.57-10.57 27.72-10.57 38.29 0s10.57 27.72 0 38.29s-31.2 14.06-41.77 3.48s-7.1-31.2 3.48-41.77z" fill="#9e9e9e"/>
<path d="M119.43 16.04c-.02 8.82-3.39 17.63-10.12 24.35c-10.66 10.66-26.56 12.89-39.42 6.7c1.03 2.45 2.48 4.7 4.4 6.62c10.57 10.57 31.2 7.09 41.77-3.48c9.3-9.3 10.42-23.67 3.37-34.19z" fill="#757575"/>
<path d="M84.02 67.06c1.92-1.92-1.69-8.65-8.06-15.02c-6.37-6.37-13.1-9.98-15.02-8.06C59.92 45 5.22 105.37 4.67 105.92c-1.92 1.92.42 7.38 5.22 12.18s10.26 7.14 12.18 5.22c.56-.54 60.93-55.24 61.95-56.26z" fill="#616161"/>
<path d="M12.37 115.63L74.3 53.7L83.22 64l-62.79 56.69c-4.84 0-8.06-5.06-8.06-5.06z" fill="#424242"/>
<path d="M43.42 83.33c-2.75-2.83-2.34-4.82-1.08-6.05L53.87 66.1a3.193 3.193 0 0 1 4.52.07L61 68.86a3.193 3.193 0 0 1-.07 4.52L49.4 84.56c-1.26 1.22-3.23 1.6-5.98-1.23z" fill="#000000"/>
<circle cx="56.9" cy="70.17" r="5.21" fill="#9e9e9e"/>
<path d="M111.54 52.79c1.11.73 1.37.85 2.61.36c1.23-.49 3.15-2.55 3.42-3.21c.41-1.03.16-1.28-.79-1.85c-3.42-2.06-9.93-6.73-20.03-16.83c-10.1-10.1-14.77-16.61-16.83-20.03c-.57-.95-1.05-1-2.27-.13c-.75.54-1.8 1.63-2.49 2.85c-.65 1.16-.68 1.4.05 2.51c2.76 4.19 7.76 10.59 16.75 19.58c8.99 9 15.39 13.99 19.58 16.75z" fill="#a1f2cf"/>
<path d="M93.64 59.55c-1.49-.85-8.07-6.27-13.94-12.15c-5.57-5.59-10.46-11.63-11.26-13.05c-.58-1.02-2.05-1.01-2.62.01l-3.88 6.9c-.82 1.47-.89 3.25-.15 4.76c1.26 2.56 3.29 5.63 8.92 11.26s8.7 7.66 11.26 8.92c1.51.74 3.29.67 4.76-.15l6.9-3.88c1.02-.57 1.03-2.04.01-2.62z" fill="#47b384"/>
<path d="M62.31 45.26l4.17-6.18c.59-.87 1.85-.93 2.52-.12l4.61 5.6c.5.61.47 1.5-.07 2.08l-5.29 5.62c-.64.68-1.72.66-2.33-.04c-1.01-1.16-2.5-3.06-3.71-5.37c-.27-.5-.22-1.12.1-1.59z" fill="#a1f2cf"/>
</g>
<g id="SVGRepo_iconCarrier">
<path d="M77.78 11.93c10.57-10.57 27.72-10.57 38.29 0s10.57 27.72 0 38.29s-31.2 14.06-41.77 3.48s-7.1-31.2 3.48-41.77z" fill="#9e9e9e"/>
<path d="M119.43 16.04c-.02 8.82-3.39 17.63-10.12 24.35c-10.66 10.66-26.56 12.89-39.42 6.7c1.03 2.45 2.48 4.7 4.4 6.62c10.57 10.57 31.2 7.09 41.77-3.48c9.3-9.3 10.42-23.67 3.37-34.19z" fill="#757575"/>
<path d="M84.02 67.06c1.92-1.92-1.69-8.65-8.06-15.02c-6.37-6.37-13.1-9.98-15.02-8.06C59.92 45 5.22 105.37 4.67 105.92c-1.92 1.92.42 7.38 5.22 12.18s10.26 7.14 12.18 5.22c.56-.54 60.93-55.24 61.95-56.26z" fill="#616161"/>
<path d="M12.37 115.63L74.3 53.7L83.22 64l-62.79 56.69c-4.84 0-8.06-5.06-8.06-5.06z" fill="#424242"/>
<path d="M43.42 83.33c-2.75-2.83-2.34-4.82-1.08-6.05L53.87 66.1a3.193 3.193 0 0 1 4.52.07L61 68.86a3.193 3.193 0 0 1-.07 4.52L49.4 84.56c-1.26 1.22-3.23 1.6-5.98-1.23z" fill="#000000"/>
<circle cx="56.9" cy="70.17" r="5.21" fill="#9e9e9e"/>
<path d="M111.54 52.79c1.11.73 1.37.85 2.61.36c1.23-.49 3.15-2.55 3.42-3.21c.41-1.03.16-1.28-.79-1.85c-3.42-2.06-9.93-6.73-20.03-16.83c-10.1-10.1-14.77-16.61-16.83-20.03c-.57-.95-1.05-1-2.27-.13c-.75.54-1.8 1.63-2.49 2.85c-.65 1.16-.68 1.4.05 2.51c2.76 4.19 7.76 10.59 16.75 19.58c8.99 9 15.39 13.99 19.58 16.75z" fill="#a1f2cf"/>
<path d="M93.64 59.55c-1.49-.85-8.07-6.27-13.94-12.15c-5.57-5.59-10.46-11.63-11.26-13.05c-.58-1.02-2.05-1.01-2.62.01l-3.88 6.9c-.82 1.47-.89 3.25-.15 4.76c1.26 2.56 3.29 5.63 8.92 11.26s8.7 7.66 11.26 8.92c1.51.74 3.29.67 4.76-.15l6.9-3.88c1.02-.57 1.03-2.04.01-2.62z" fill="#47b384"/>
<path d="M62.31 45.26l4.17-6.18c.59-.87 1.85-.93 2.52-.12l4.61 5.6c.5.61.47 1.5-.07 2.08l-5.29 5.62c-.64.68-1.72.66-2.33-.04c-1.01-1.16-2.5-3.06-3.71-5.37c-.27-.5-.22-1.12.1-1.59z" fill="#a1f2cf"/>
</g>
</svg>