<!DOCTYPE svg PUBLIC "-//W3C//DTD SVG 1.1//EN" "http://www.w3.org/Graphics/SVG/1.1/DTD/svg11.dtd">
<!-- Uploaded to: SVG Repo, www.svgrepo.com, Transformed by: SVG Repo Mixer Tools -->
<svg width="800px" height="800px" viewBox="-1.7 -1.7 20.40 20.40" version="1.1" xmlns="http://www.w3.org/2000/svg" xmlns:xlink="http://www.w3.org/1999/xlink" class="si-glyph si-glyph-knife" fill="#000000" transform="matrix(1, 0, 0, 1, 0, 0)rotate(0)">
<g id="SVGRepo_bgCarrier" stroke-width="0" transform="translate(0.8499999999999996,0.8499999999999996), scale(0.9)">
<rect x="-1.7" y="-1.7" width="20.40" height="20.40" rx="10.2" fill="#a72f2f" strokewidth="0"/>
</g>
<g id="SVGRepo_tracerCarrier" stroke-linecap="round" stroke-linejoin="round"/>
<g id="SVGRepo_iconCarrier"> <title>751</title> <defs> </defs> <g stroke="none" stroke-width="1" fill="none" fill-rule="evenodd"> <g transform="translate(1.000000, 0.000000)" fill="#212121"> <path d="M4.344,5.262 C4.344,5.262 2.199,3.118 1.746,2.664 C1.292,2.211 0.803,2.696 0.221,2.113 C-0.361,1.531 0.294,0.745 0.7,0.34 L0.7,0.34 C1.106,-0.065 1.725,-0.104 2.083,0.253 L5.358,3.529 C5.715,3.887 4.701,5.621 4.344,5.262 L4.344,5.262 Z" class="si-glyph-fill"> </path> <path d="M15.938,15.625 C14.726,16.837 9.588,12.389 4.315,7.115 C4.315,7.115 5.842,5.594 6.633,4.804 C6.633,4.805 16.518,15.044 15.938,15.625 L15.938,15.625 Z" class="si-glyph-fill"> </path> </g> </g> </g>
</svg>