<!DOCTYPE svg PUBLIC "-//W3C//DTD SVG 1.1//EN" "http://www.w3.org/Graphics/SVG/1.1/DTD/svg11.dtd">
<!-- Uploaded to: SVG Repo, www.svgrepo.com, Transformed by: SVG Repo Mixer Tools -->
<svg width="800px" height="800px" viewBox="-1.28 -1.28 66.56 66.56" data-name="Layer 1" id="Layer_1" xmlns="http://www.w3.org/2000/svg" fill="#ffffff">
<g id="SVGRepo_bgCarrier" stroke-width="0" transform="translate(4.800000000000001,4.800000000000001), scale(0.85)">
<path transform="translate(-1.28, -1.28), scale(2.08)" d="M16,30.62097406387329C18.21445680413234,29.889415154745485,18.698225171358388,26.848748232824068,20.52831753048157,25.403148242518583C21.88316072944497,24.332950169987797,23.98869752037214,24.564960816804962,25.210765190101807,23.345340130350568C26.456709226505183,22.10189088559787,26.707489534400466,20.228766694655317,27.35371998692583,18.59141249706884C28.092184651195,16.72036446291116,29.922420895670072,14.877970353257556,29.308711275793343,12.962373498757565C28.677420068584617,10.991898519001765,25.54452353780136,11.02725790411318,24.381978640270454,9.315595088203597C23.081289080506075,7.400536186634334,24.175761575715466,4.214960594677544,22.37742099381211,2.757148851399549C20.703939980827666,1.4005536116372375,18.126295607845357,2.174746645902782,16,2.520804926287383C14.046462093430602,2.8387465925915274,12.440783538419817,4.098318038421813,10.549608643015258,4.682145727528248C8.316807745000585,5.3714373375693265,4.973727893492786,4.253464947128833,3.8147011445368904,6.282548427188951C2.559950866496769,8.479213053838505,5.6073743280398,11.06867784963936,5.459040668118927,13.594094818686187C5.342947741525086,15.570605389265985,3.325917851902715,16.98766518544068,3.070600111732304,18.951051152277834C2.77651063159311,21.212590667371206,2.623459429709783,23.760798484126227,3.8903727244671664,25.657105501521958C5.153189774517828,27.54728128830035,7.654908407416971,28.098911052828626,9.758263540968791,28.961099308943947C11.775581531088925,29.78801999969514,13.929817726739616,31.30487102799379,16,30.62097406387329" fill="#ffe0b2" strokewidth="0"/>
</g>
<g id="SVGRepo_tracerCarrier" stroke-linecap="round" stroke-linejoin="round" stroke="#CCCCCC" stroke-width="1.024"/>
<g id="SVGRepo_iconCarrier">
<defs>
<style>.cls-1{fill:#6d4d42;}.cls-2{fill:#378e43;}.cls-3{fill:#42a047;}.cls-4{fill:#f78c1e;}.cls-5{fill:#f47c20;}.cls-6{fill:#ffe0b2;}.cls-7{fill:#fcb64d;}.cls-8{fill:#fecc81;}.cls-9{fill:#faa629;}</style>
</defs>
<path class="cls-1" d="M22,21a1,1,0,0,1-1-1,9.01,9.01,0,0,1,9-9,1,1,0,0,1,0,2,7.0081,7.0081,0,0,0-7,7A1,1,0,0,1,22,21Z"/>
<path class="cls-2" d="M22,18.06V20H20.06A6.056,6.056,0,0,1,14,13.94V12h1.94A6.056,6.056,0,0,1,22,18.06Z"/>
<path class="cls-3" d="M22,20H20.06A6.056,6.056,0,0,1,14,13.94V12Z"/>
<path class="cls-4" d="M32.94,48.68A19.3038,19.3038,0,0,1,22,52C12.06,52,4,44.84,4,36s8.06-16,18-16c9.56,0,17.36,6.63,17.94,15H26A16.9519,16.9519,0,0,0,32.94,48.68Z"/>
<path class="cls-5" d="M32.94,48.68A19.3038,19.3038,0,0,1,22,52V20c9.56,0,17.36,6.63,17.94,15H26A16.9519,16.9519,0,0,0,32.94,48.68Z"/>
<path class="cls-4" d="M60,35a17,17,0,0,1-34,0Z"/>
<path class="cls-5" d="M60,35A16.9985,16.9985,0,0,1,43,52V35Z"/>
<path class="cls-6" d="M56,35a13,13,0,1,1-26,0Z"/>
<path class="cls-7" d="M56,35A12.9985,12.9985,0,0,1,43,48V35Z"/>
<path class="cls-8" d="M48.81,46.63a13.0047,13.0047,0,0,1-11.62,0L43,35Z"/>
<path class="cls-9" d="M48.81,46.63A12.8816,12.8816,0,0,1,43,48V35Z"/>
</g>
</svg>