<!DOCTYPE svg PUBLIC "-//W3C//DTD SVG 1.1//EN" "http://www.w3.org/Graphics/SVG/1.1/DTD/svg11.dtd">
<!-- Uploaded to: SVG Repo, www.svgrepo.com, Transformed by: SVG Repo Mixer Tools -->
<svg height="800px" width="800px" version="1.1" id="Layer_1" xmlns="http://www.w3.org/2000/svg" xmlns:xlink="http://www.w3.org/1999/xlink" viewBox="0 0 512 512" xml:space="preserve" fill="#000000">
<g id="SVGRepo_bgCarrier" stroke-width="0"/>
<g id="SVGRepo_tracerCarrier" stroke-linecap="round" stroke-linejoin="round"/>
<g id="SVGRepo_iconCarrier"> <path style="fill:#edbd1f;" d="M0,256.006C0,397.402,114.606,512.004,255.996,512C397.394,512.004,512,397.402,512,256.006 C512.009,114.61,397.394,0,255.996,0C114.606,0,0,114.614,0,256.006z"/> <path style="fill:#dbad14;" d="M511.236,274.843c-0.105-0.101-0.209-0.202-0.311-0.307c-0.045-0.048-0.081-0.096-0.126-0.143 c-0.455-0.483-163.748-163.745-163.792-163.792c-18.942-20.064-41.488-32.827-67.013-37.934c-15.687-3.136-32.283-3.145-47.979,0 c-25.497,5.099-48.042,17.861-67.008,37.93c-17.899,18.933-25.37,38.689-28.561,47.126c-4.043,10.707-11.568,30.633-9.445,56.842 c2.334,28.834,14.898,49.903,19.026,56.825c2.554,4.275,7.782,12.454,18.215,27.13c2.638,3.71,4.875,6.74,6.82,9.378 c4.845,6.572,7.517,10.189,10.273,15.907c3.751,7.782,6.521,16.029,8.229,24.503c0.438,2.173,1.705,3.963,3.389,5.201 c0.46,0.56,18.654,18.777,18.922,19.028h-7.728c-4.773,0-8.643,3.871-8.643,8.644c0,2.78,1.397,5.141,3.437,6.722 c0.448,0.578,9.993,10.131,10.541,10.565h-5.334c-4.773,0-8.643,3.871-8.643,8.644c0,2.78,1.397,5.141,3.437,6.722 c0.448,0.578,24.678,24.951,24.965,25.231c0.255,0.261,0.592,0.413,0.878,0.641c0.228,0.286,0.38,0.623,0.641,0.878 c0.255,0.261,0.591,0.412,0.877,0.639c0.226,0.285,66.444,66.503,66.73,66.73c0.226,0.286,0.379,0.622,0.639,0.877 c0.132,0.135,0.298,0.229,0.455,0.332C411.343,491.661,502.51,394.709,511.236,274.843z"/> <g> <path style="fill:#F4F6F9;" d="M307.871,372.539H204.147c-4.773,0-8.643,3.87-8.643,8.643s3.87,8.643,8.643,8.643h103.724 c4.773,0,8.643-3.87,8.643-8.643C316.515,376.409,312.644,372.539,307.871,372.539z"/> <path style="fill:#F4F6F9;" d="M307.871,398.469H204.147c-4.773,0-8.643,3.87-8.643,8.643s3.87,8.643,8.643,8.643h103.724 c4.773,0,8.643-3.87,8.643-8.643S312.644,398.469,307.871,398.469z"/> <path style="fill:#F4F6F9;" d="M281.94,424.4h-51.861c-4.773,0-8.643,3.87-8.643,8.643s3.87,8.643,8.643,8.643h51.861 c4.773,0,8.643-3.87,8.643-8.643S286.714,424.4,281.94,424.4z"/> <path style="fill:#F4F6F9;" d="M375.564,157.728c-3.173-8.412-10.602-28.113-28.556-47.126 c-18.942-20.064-41.488-32.827-67.013-37.934c-15.687-3.136-32.283-3.145-47.979,0c-25.497,5.099-48.042,17.861-67.009,37.93 c-17.899,18.933-25.37,38.689-28.56,47.126c-4.044,10.707-11.568,30.633-9.445,56.842c2.334,28.834,14.898,49.903,19.026,56.825 c2.554,4.275,7.782,12.454,18.215,27.13c2.638,3.71,4.875,6.74,6.82,9.378c4.845,6.572,7.517,10.189,10.273,15.907 c3.753,7.782,6.521,16.03,8.23,24.505c0.815,4.035,4.359,6.934,8.475,6.934H313.97c4.17,0,7.745-2.975,8.5-7.073 c1.57-8.505,4.305-16.65,8.129-24.213c3.009-5.947,5.787-9.754,10.834-16.667c1.823-2.498,3.9-5.347,6.378-8.829 c7.174-10.095,13.375-18.815,18.198-27.117c4.588-7.791,16.768-28.497,19.005-56.796 C387.086,188.292,379.59,168.41,375.564,157.728z M367.777,213.189c-1.92,24.327-12.636,42.534-16.688,49.426 c-4.452,7.657-10.442,16.076-17.41,25.885c-2.389,3.36-4.428,6.149-6.212,8.602c-5.209,7.137-8.652,11.851-12.294,19.052 c-3.494,6.909-6.225,14.219-8.154,21.803H204.899c-1.967-7.454-4.642-14.713-7.989-21.66c-3.461-7.174-6.833-11.742-11.936-18.659 c-1.895-2.571-4.073-5.524-6.643-9.137c-10.099-14.206-15.068-21.964-17.456-25.965c-3.621-6.069-14.633-24.538-16.645-49.363 c-1.806-22.339,4.575-39.243,8.39-49.338c3.06-8.099,9.428-24.947,24.947-41.361c16.464-17.418,35.925-28.471,57.842-32.857 c13.481-2.701,27.721-2.692,41.193,0c21.942,4.389,41.403,15.443,57.838,32.852c15.569,16.49,21.904,33.287,24.951,41.357 C363.189,173.909,369.546,190.779,367.777,213.189z"/> </g> </g>
</svg>